<svg x="0" y="0" width="48" height="48" version="1.1" xmlns="http://www.w3.org/2000/svg" xmlns:xlink="http://www.w3.org/1999/xlink"><defs><linearGradient x1="14.80638" y1="11.68966" x2="54.40682" y2="57.52353" gradientUnits="userSpaceOnUse" id="color-1"><stop offset="0" stop-color="#000000" stop-opacity="0.7"></stop><stop offset="1" stop-color="#000000" stop-opacity="0"></stop></linearGradient><filter id="dropshadow"><feColorMatrix type="matrix" values="0 0 0 0 .05  0 0 0 0 .15  0 0 0 0 .1  0 0 0 .8 0"></feColorMatrix> <feOffset dx="0" dy="1"></feOffset> <feGaussianBlur stdDeviation="1"></feGaussianBlur> <feComposite in="SourceGraphic"></feComposite></filter></defs><g fill="none" stroke="none" stroke-width="none" stroke-linecap="butt" stroke-linejoin="miter" stroke-miterlimit="none" stroke-dasharray="" stroke-dashoffset="0" font-family="none" font-weight="normal" font-size="none" text-anchor="start" mix-blend-mode="normal"><g fill="#000000" stroke="none" stroke-width="1" stroke-miterlimit="4" font-family="&quot;Open Sans&quot;, sans-serif" font-size="14"></g><g fill="#000000" stroke="none" stroke-width="1" stroke-miterlimit="4" font-family="&quot;Open Sans&quot;, sans-serif" font-size="14"></g><g fill="#000000" stroke="none" stroke-width="1" stroke-miterlimit="4" font-family="&quot;Open Sans&quot;, sans-serif" font-size="14"></g><g fill="#000000" stroke="none" stroke-width="1" stroke-miterlimit="4" font-family="&quot;Open Sans&quot;, sans-serif" font-size="14"></g><g fill="#000000" stroke="none" stroke-width="1" stroke-miterlimit="4" font-family="&quot;Open Sans&quot;, sans-serif" font-size="14"></g><g fill="#000000" stroke="none" stroke-width="1" stroke-miterlimit="4" font-family="&quot;Open Sans&quot;, sans-serif" font-size="14"></g><path d="M3,24c0,-11.59798 9.40202,-21 21,-21c11.59798,0 21,9.40202 21,21c0,11.59798 -9.40202,21 -21,21c-11.59798,0 -21,-9.40202 -21,-21z" fill="#512da8" stroke-width="1" stroke-miterlimit="10" font-family="sans-serif" font-size="12" filter="url(#dropshadow)"></path><path d="M23.90455,44.99979l-8.89363,-8.89363c0.00074,0.00074 0.00149,0.00149 0.00224,0.00223l-0.00223,-0.00223c-0.12632,-0.12632 -0.20455,-0.30077 -0.20455,-0.49303l0,-23.22549c0,-0.38646 0.3123,-0.69798 0.69642,-0.69798l16.99362,0l0.00001,0.00001c0.19235,0 0.36637,0.0778 0.49244,0.20387c0,0 0.0022,0.0022 0.0022,0.0022c-0.00073,-0.00074 -0.00147,-0.00148 -0.0022,-0.00221l12.01092,12.01092c0.00014,0.03183 0.00021,0.06369 0.00021,0.09555c0,11.59798 -9.40202,21 -21,21c-0.03183,0 -0.06365,-0.00007 -0.09545,-0.00021z" fill="url(#color-1)" stroke-width="1" stroke-miterlimit="10" font-family="sans-serif" font-size="12"></path><path d="M33.19362,12.38764l0,23.22549c0,0.38647 -0.3123,0.6972 -0.6972,0.6972l-16.99361,0c-0.38412,0 -0.69642,-0.31308 -0.69642,-0.6972l0,-23.22549c0,-0.38647 0.3123,-0.69798 0.69642,-0.69798l16.99361,0c0.38491,0 0.69642,0.31152 0.6972,0.69798z M16.19844,34.91671l0.84164,0l0,-4.12622l1.67235,0l0,4.12622l0.61835,0l0,-4.12622l1.67313,0l0,4.12622l0.76356,0l0,-4.12622l1.67157,0l0,4.12622l0.69174,0l0,-4.12622l1.67313,0l0,4.12622l3.60937,0l-0.72999,-0.32635l1.77384,-3.95211l1.34287,0.60273l0,-2.75133l-15.60155,0z M27.31386,22.63097l1.85816,3.91308l-0.51607,0.24437l3.14405,0l0,-6.18816l-15.60155,0l0,6.18816l0.84164,0l0,-4.15745l1.67235,0l0,4.15745l0.61835,0l0,-4.15745l1.67313,0l0,4.15745l0.76356,0l0,-4.15745l1.67079,0l0,4.15745l0.69174,0l0,-4.15745l1.67313,0l0,0.71672z M16.19844,13.08329l0,5.81652l0.9525,0l0,-4.33155l1.67313,0l0,4.33155l0.57931,0l0,-4.33155l1.67313,0l0,4.33155l0.61835,0l0,-4.33155l1.67079,0l0,4.33155l0.76435,0l0,-4.33155l1.67313,0l0,4.33155l3.25725,0l-0.32791,-0.13351l1.65283,-4.00364l1.4147,0.58165l0,-2.26103c0,0 -15.60155,0 -15.60155,0z M25.80312,23.34769l0,0l0,3.44073l1.63331,0z M31.8,34.91671l0,-3.18855l-1.43032,3.18855z M31.8,18.89903l0,-3.18074l-1.31399,3.18074z" fill="#ffffff" stroke="none" stroke-width="0" stroke-miterlimit="4" font-family="&quot;Open Sans&quot;, sans-serif" font-size="14"></path></g></svg>